<svg width="600" height="574" viewBox="0 0 600 574" fill="none" xmlns="http://www.w3.org/2000/svg">
<g clip-path="url(#clip0_574_6732)">
<path d="M567.858 259.576C572.205 248.339 574.629 236.183 574.629 223.443C574.629 168.553 530.324 123.815 475.569 123.063C472.811 70.0947 429.007 28.0295 375.34 28.0295C345.329 28.0295 318.453 41.188 300.063 62.0326C281.672 41.188 254.754 28.0295 224.786 28.0295C171.369 28.0295 127.691 69.7188 124.598 122.353V0H1.37931V123.104H123.093C68.9655 124.608 25.4127 169.013 25.4127 223.443C25.4127 236.183 27.837 248.381 32.1839 259.576C12.4138 277.914 0 304.106 0 333.18C0 388.571 45.0993 433.602 100.481 433.602H209.404L250.491 474.664V574H349.467V475.082L391.014 433.56H499.519C554.943 433.56 600 388.529 600 333.138C600 304.106 587.586 277.914 567.816 259.534L567.858 259.576ZM300.021 298.508H247.523V246.125H124.472V123.021H247.649V246.042H299.979V298.508H300.021Z" fill="#FF5539"/>
</g>
<defs>
<clipPath id="clip0_574_6732">
<rect width="600" height="574" fill="white"/>
</clipPath>
</defs>
</svg>
